<svg id="svg" version="1.1" xmlns="http://www.w3.org/2000/svg" xmlns:xlink="http://www.w3.org/1999/xlink" width="400" height="91.25" viewBox="0, 0, 400,91.25"><g id="svgg"><path id="path0" d="M206.967 2.208 C 206.895 5.382,206.935 5.571,207.708 5.635 C 208.229 5.678,208.333 5.749,208.333 6.060 C 208.333 6.712,208.639 6.833,210.283 6.833 L 211.833 6.833 211.833 6.260 C 211.833 5.718,211.867 5.684,212.458 5.635 L 213.083 5.583 213.129 2.792 L 213.175 0.000 210.096 0.000 L 207.018 0.000 206.967 2.208 M159.108 3.329 C 158.441 3.458,158.174 3.709,158.169 4.208 C 158.167 4.474,157.924 4.500,155.417 4.500 C 152.535 4.500,152.000 4.640,152.000 5.394 C 152.000 5.564,151.603 5.642,150.420 5.704 C 148.730 5.792,148.333 5.963,148.333 6.604 C 148.333 6.978,148.277 7.000,147.292 7.003 C 146.090 7.005,145.926 7.082,145.772 7.708 C 145.671 8.122,145.589 8.167,144.924 8.167 C 143.844 8.167,143.383 8.393,143.252 8.990 C 143.167 9.378,143.049 9.500,142.758 9.500 C 141.853 9.500,141.284 9.726,141.019 10.191 C 140.871 10.451,140.614 10.665,140.447 10.666 C 139.867 10.668,139.500 10.993,139.500 11.506 C 139.500 11.971,139.461 12.000,138.833 12.000 C 138.467 12.000,138.167 12.066,138.167 12.147 C 138.167 12.228,138.017 12.334,137.834 12.381 C 137.651 12.429,137.449 12.607,137.385 12.776 C 137.219 13.214,136.901 13.500,136.581 13.500 C 136.427 13.500,136.221 13.721,136.116 14.000 C 135.980 14.360,135.817 14.500,135.536 14.500 C 134.921 14.500,134.500 14.805,134.500 15.251 C 134.500 15.568,134.383 15.687,133.967 15.795 C 133.566 15.899,133.401 16.058,133.305 16.431 C 133.209 16.801,133.035 16.970,132.629 17.089 C 132.153 17.229,132.077 17.330,132.032 17.875 C 131.990 18.375,131.912 18.500,131.642 18.500 C 131.420 18.500,131.240 18.671,131.116 19.000 C 131.012 19.275,130.868 19.500,130.797 19.500 C 130.725 19.500,130.667 19.758,130.667 20.073 C 130.667 20.597,130.621 20.650,130.125 20.698 C 129.630 20.745,129.579 20.804,129.532 21.375 C 129.489 21.890,129.416 22.000,129.115 22.003 C 128.482 22.007,128.329 22.244,128.222 23.387 L 128.118 24.500 127.559 24.500 C 127.000 24.500,127.000 24.501,127.000 25.320 C 127.000 26.071,126.944 26.189,126.333 26.711 C 125.680 27.271,125.667 27.303,125.667 28.391 L 125.667 29.500 125.083 29.500 L 124.500 29.500 124.500 30.713 C 124.500 31.901,124.490 31.931,124.013 32.111 C 123.367 32.355,123.169 33.100,123.168 35.292 C 123.167 36.963,123.158 37.000,122.783 37.000 C 121.987 37.000,122.000 36.844,122.000 46.711 C 122.000 56.503,122.012 56.667,122.756 56.667 C 123.158 56.667,123.167 56.694,123.167 58.000 L 123.167 59.333 121.887 59.333 C 120.647 59.333,120.594 59.316,120.156 58.792 L 119.704 58.250 116.125 58.197 C 112.288 58.140,112.000 58.196,112.000 59.012 C 112.000 59.310,111.859 59.335,110.042 59.350 C 107.576 59.371,107.294 59.445,107.091 60.130 C 106.934 60.658,106.915 60.667,105.916 60.667 C 104.821 60.667,104.500 60.844,104.500 61.450 C 104.500 61.777,104.414 61.833,103.917 61.833 C 103.458 61.833,103.190 61.976,102.667 62.500 C 101.875 63.292,101.870 63.293,101.803 62.712 C 101.736 62.137,101.168 61.839,100.136 61.836 C 99.377 61.833,99.353 61.818,99.302 61.292 C 99.252 60.773,99.216 60.748,98.467 60.700 C 97.863 60.661,97.660 60.575,97.581 60.325 C 97.524 60.146,97.413 60.000,97.334 60.000 C 97.255 60.000,97.060 59.869,96.900 59.708 C 96.672 59.480,96.225 59.399,94.848 59.333 C 93.253 59.258,93.081 59.219,93.025 58.917 C 92.888 58.171,92.857 58.167,87.938 58.169 C 82.968 58.172,82.577 58.226,82.252 58.961 C 82.101 59.302,81.969 59.335,80.669 59.350 C 78.775 59.372,78.466 59.473,78.298 60.123 C 78.162 60.650,78.155 60.652,76.955 60.701 L 75.750 60.750 75.698 61.292 L 75.646 61.833 73.999 61.833 C 72.225 61.833,71.299 62.155,71.079 62.845 C 70.983 63.148,70.789 63.167,67.655 63.167 L 64.333 63.167 64.333 62.663 C 64.333 62.053,63.887 61.833,62.652 61.833 C 61.929 61.833,61.806 61.782,61.671 61.427 C 61.464 60.884,61.013 60.667,60.094 60.667 C 59.340 60.667,59.333 60.661,59.333 60.101 C 59.333 59.504,59.127 59.333,58.403 59.333 C 58.116 59.333,58.000 59.241,58.000 59.012 C 58.000 58.535,57.545 58.167,56.954 58.167 C 56.594 58.167,56.263 58.003,55.885 57.636 C 55.070 56.846,53.863 56.839,53.500 57.621 C 53.284 58.086,53.165 58.160,52.625 58.163 C 52.219 58.165,52.000 58.244,52.000 58.388 C 52.000 58.783,51.267 59.300,50.500 59.446 C 49.851 59.570,49.729 59.661,49.593 60.120 C 49.459 60.571,49.347 60.658,48.843 60.700 C 48.308 60.745,48.245 60.803,48.198 61.292 L 48.146 61.833 46.948 61.853 C 45.109 61.883,44.777 61.992,44.591 62.625 L 44.431 63.167 41.216 63.167 L 38.000 63.167 38.000 62.770 C 38.000 62.120,37.604 61.954,35.844 61.870 C 34.309 61.796,34.189 61.764,34.019 61.392 C 33.805 60.923,33.220 60.667,32.362 60.667 C 31.883 60.667,31.709 60.583,31.581 60.292 C 31.280 59.605,30.421 59.334,28.545 59.334 C 26.860 59.333,26.838 59.328,26.734 58.912 C 26.557 58.207,26.255 58.167,21.190 58.167 C 16.019 58.167,15.833 58.196,15.833 59.012 C 15.833 59.305,15.704 59.333,14.344 59.333 C 12.445 59.333,12.000 59.491,12.000 60.163 L 12.000 60.667 11.012 60.667 C 9.968 60.667,9.500 60.921,9.500 61.489 C 9.500 61.723,9.318 61.808,8.649 61.888 C 7.717 61.998,7.374 62.204,7.153 62.785 C 7.046 63.068,6.876 63.167,6.500 63.167 C 6.108 63.167,5.955 63.264,5.829 63.594 C 5.651 64.063,5.636 75.254,5.812 76.077 C 6.011 77.003,7.442 76.997,8.401 76.065 C 8.722 75.754,9.062 75.500,9.158 75.500 C 9.255 75.500,9.333 75.415,9.333 75.311 C 9.333 74.944,10.179 74.333,10.686 74.333 C 11.458 74.333,11.833 74.059,11.833 73.494 L 11.833 73.000 12.883 73.000 C 14.013 73.000,14.333 72.827,14.333 72.217 C 14.333 71.895,14.421 71.833,14.875 71.832 C 15.967 71.831,16.633 71.533,16.752 70.992 L 16.861 70.494 20.639 70.539 L 24.417 70.583 24.470 71.050 C 24.536 71.626,25.011 71.833,26.266 71.833 C 27.086 71.833,27.237 71.892,27.761 72.417 C 28.324 72.979,28.389 73.000,29.589 73.000 C 30.788 73.000,30.833 73.014,30.833 73.396 C 30.833 74.102,31.218 74.234,33.485 74.305 C 35.584 74.370,35.600 74.374,35.860 74.827 C 36.208 75.433,36.672 75.496,40.750 75.497 C 44.412 75.498,45.250 75.366,45.535 74.740 C 45.710 74.355,45.797 74.333,47.152 74.331 C 49.076 74.328,49.303 74.254,49.366 73.608 L 49.417 73.083 50.625 73.034 C 51.357 73.005,51.833 72.914,51.833 72.803 C 51.833 72.609,52.605 71.834,52.800 71.832 C 53.490 71.827,54.152 71.445,54.251 70.996 C 54.437 70.147,55.626 70.254,55.698 71.125 C 55.747 71.714,55.785 71.753,56.365 71.801 C 56.922 71.847,56.985 71.902,57.032 72.384 L 57.083 72.917 58.249 73.000 C 59.386 73.081,59.417 73.095,59.499 73.576 C 59.605 74.189,59.939 74.295,61.855 74.317 C 62.914 74.329,63.347 74.399,63.500 74.583 C 63.614 74.721,63.812 74.833,63.939 74.833 C 64.066 74.833,64.298 74.983,64.455 75.167 C 64.725 75.482,64.947 75.500,68.583 75.500 C 72.685 75.500,73.167 75.411,73.167 74.657 C 73.167 74.354,73.298 74.333,75.208 74.331 C 77.512 74.328,78.053 74.166,78.136 73.454 L 78.189 73.000 79.678 73.000 C 81.227 73.000,81.833 72.742,81.833 72.083 C 81.833 71.888,82.058 71.833,82.855 71.833 C 83.975 71.833,84.898 71.416,85.086 70.825 C 85.184 70.516,85.365 70.500,88.681 70.500 L 92.174 70.500 92.364 70.918 C 92.614 71.467,93.377 71.833,94.269 71.833 C 94.888 71.833,95.049 71.912,95.451 72.417 C 95.808 72.864,96.041 73.000,96.447 73.000 C 96.901 73.000,96.985 73.066,97.031 73.454 C 97.097 74.031,97.665 74.328,98.708 74.331 L 99.500 74.333 99.500 74.917 C 99.500 75.472,99.528 75.500,100.083 75.500 C 100.590 75.500,100.667 75.553,100.667 75.905 C 100.667 77.157,103.293 77.152,104.033 75.899 C 104.205 75.606,104.534 75.319,104.763 75.262 C 104.992 75.204,105.249 74.973,105.335 74.745 C 105.443 74.462,105.619 74.333,105.899 74.333 C 106.624 74.333,106.833 74.163,106.833 73.573 L 106.833 73.015 108.042 72.966 L 109.250 72.917 109.302 72.375 L 109.354 71.833 110.312 71.833 C 111.381 71.833,111.784 71.617,111.863 71.000 L 111.917 70.583 115.042 70.538 L 118.167 70.493 118.167 70.893 C 118.167 71.548,118.560 71.712,120.331 71.798 L 121.982 71.877 122.033 72.397 L 122.083 72.917 123.520 73.000 C 124.930 73.082,124.967 73.095,125.509 73.708 L 126.061 74.333 127.769 74.333 C 129.407 74.333,129.479 74.348,129.530 74.704 C 129.604 75.219,130.246 75.495,131.379 75.498 C 132.251 75.500,132.356 75.539,132.500 75.917 C 132.587 76.146,132.735 76.333,132.829 76.333 C 133.046 76.333,133.667 76.947,133.667 77.161 C 133.667 77.249,133.831 77.409,134.031 77.517 C 134.517 77.777,134.923 78.185,135.051 78.542 C 135.109 78.702,135.263 78.833,135.394 78.833 C 135.524 78.833,135.674 78.946,135.727 79.083 C 135.787 79.240,136.042 79.333,136.411 79.333 C 136.973 79.333,137.000 79.360,137.000 79.917 C 137.000 80.472,137.028 80.500,137.583 80.500 C 138.090 80.500,138.167 80.553,138.167 80.905 C 138.167 81.450,138.585 81.833,139.179 81.833 C 139.476 81.833,139.667 81.921,139.667 82.058 C 139.667 82.341,140.138 82.760,140.625 82.908 C 140.932 83.002,141.000 82.958,141.000 82.668 C 141.000 82.473,140.938 82.352,140.862 82.399 C 140.746 82.471,140.734 82.263,140.819 81.650 C 140.827 81.595,141.122 81.437,141.474 81.299 C 142.168 81.026,142.328 80.500,142.332 78.471 C 142.333 77.901,142.438 77.566,142.723 77.221 C 143.235 76.603,143.500 75.796,143.501 74.850 C 143.502 73.802,143.798 72.821,144.236 72.415 C 144.493 72.177,144.612 71.850,144.640 71.306 C 144.662 70.881,144.752 70.283,144.840 69.976 C 144.928 69.670,145.000 69.175,145.000 68.876 C 145.000 68.557,145.136 68.197,145.330 68.003 C 145.718 67.615,145.958 66.678,146.062 65.142 C 146.140 63.978,146.333 63.443,146.762 63.203 C 146.946 63.100,147.061 62.630,147.163 61.571 C 147.241 60.753,147.358 59.951,147.422 59.789 C 147.486 59.627,147.444 59.266,147.328 58.988 L 147.119 58.482 144.866 58.578 C 143.628 58.630,142.435 58.718,142.216 58.773 C 141.799 58.878,140.333 58.406,140.333 58.166 C 140.333 58.090,139.969 57.906,139.524 57.758 C 138.979 57.577,138.654 57.355,138.528 57.078 C 138.425 56.852,138.189 56.657,138.004 56.646 C 137.818 56.634,137.592 56.606,137.500 56.583 C 137.408 56.560,137.213 56.532,137.067 56.521 C 136.920 56.509,136.600 56.286,136.355 56.023 C 136.110 55.761,135.724 55.490,135.497 55.420 C 134.999 55.268,134.500 54.853,134.500 54.592 C 134.500 54.488,134.079 54.259,133.565 54.085 C 133.023 53.900,132.526 53.606,132.380 53.384 C 132.241 53.173,131.987 53.000,131.814 53.000 C 131.641 53.000,131.500 52.921,131.500 52.823 C 131.500 52.726,131.431 52.690,131.347 52.742 C 131.262 52.794,131.105 52.568,130.997 52.240 C 130.888 51.912,130.701 51.605,130.579 51.559 C 130.273 51.441,129.880 50.554,129.753 49.691 C 129.610 48.723,129.390 48.178,129.097 48.066 C 128.518 47.843,128.293 43.509,128.812 42.541 C 129.289 41.648,129.057 40.679,128.287 40.349 C 127.868 40.170,127.493 39.868,127.380 39.619 C 127.273 39.385,126.976 39.093,126.718 38.970 C 126.428 38.831,126.180 38.530,126.065 38.176 C 125.963 37.863,125.678 37.445,125.431 37.248 C 124.873 36.803,124.809 35.167,125.349 35.167 C 125.508 35.167,125.876 34.867,126.167 34.500 C 126.763 33.747,126.919 33.703,127.406 34.149 C 127.750 34.464,129.100 34.863,129.773 34.848 C 129.970 34.844,130.403 35.025,130.736 35.251 C 131.069 35.477,131.521 35.708,131.741 35.763 C 131.960 35.818,132.254 35.987,132.395 36.140 C 132.536 36.292,132.948 36.737,133.310 37.129 C 133.743 37.597,134.034 38.113,134.159 38.635 C 134.286 39.163,134.467 39.482,134.703 39.589 C 135.051 39.748,135.231 39.991,135.390 40.518 C 135.457 40.740,135.876 40.804,137.861 40.899 C 140.490 41.023,142.667 41.407,142.667 41.746 C 142.667 41.863,142.784 42.056,142.927 42.175 C 143.157 42.366,143.132 42.416,142.719 42.599 L 142.250 42.806 142.762 42.820 C 143.220 42.832,143.291 42.766,143.429 42.208 C 143.514 41.865,143.677 41.574,143.792 41.563 C 143.906 41.551,144.019 41.527,144.042 41.508 C 144.065 41.490,144.233 41.447,144.417 41.414 C 144.600 41.380,144.998 41.307,145.301 41.250 C 145.895 41.140,148.315 41.469,148.575 41.696 C 148.662 41.771,148.976 41.833,149.273 41.833 C 149.571 41.833,149.857 41.903,149.910 41.988 C 149.962 42.074,150.210 42.111,150.461 42.072 C 152.030 41.824,151.982 41.849,152.095 41.245 C 152.155 40.929,152.260 40.705,152.329 40.748 C 152.399 40.791,152.493 40.303,152.539 39.665 C 152.584 39.027,152.716 38.391,152.831 38.252 C 153.003 38.045,152.994 38.000,152.778 38.000 C 152.359 38.000,152.249 37.024,152.267 33.500 C 152.290 29.033,152.577 28.262,154.013 28.806 C 154.235 28.890,154.958 29.013,155.620 29.079 C 157.392 29.256,157.333 29.388,157.333 25.268 L 157.333 21.846 156.625 21.672 C 155.001 21.273,154.537 20.555,155.444 19.842 C 155.698 19.642,155.998 19.258,156.112 18.989 C 156.245 18.672,156.439 18.500,156.661 18.500 C 156.891 18.500,157.099 18.304,157.286 17.911 C 157.443 17.582,157.729 17.282,157.936 17.230 C 158.139 17.179,158.399 16.911,158.514 16.634 C 158.638 16.333,158.913 16.064,159.194 15.965 C 159.454 15.875,159.667 15.709,159.667 15.596 C 159.667 15.342,160.369 14.667,160.634 14.667 C 160.741 14.667,160.936 14.410,161.067 14.097 C 161.223 13.722,161.436 13.508,161.687 13.472 C 161.974 13.430,162.141 13.215,162.359 12.604 C 162.519 12.157,162.802 11.649,162.989 11.474 C 163.364 11.125,163.432 10.888,163.579 9.417 C 163.633 8.867,163.754 8.391,163.846 8.359 C 163.950 8.323,163.935 8.206,163.807 8.052 C 163.615 7.820,163.592 7.014,163.717 4.889 C 163.739 4.506,163.700 4.230,163.629 4.273 C 163.558 4.317,163.500 4.280,163.500 4.190 C 163.500 4.101,163.594 3.990,163.708 3.944 C 163.833 3.893,163.799 3.854,163.625 3.846 C 163.212 3.828,163.263 3.518,163.708 3.339 C 164.170 3.153,160.064 3.144,159.108 3.329 M166.668 3.502 C 166.857 3.855,166.706 5.241,166.341 6.500 C 166.274 6.729,166.276 7.124,166.346 7.377 C 166.415 7.630,166.515 8.353,166.567 8.983 C 166.680 10.342,166.758 10.577,167.272 11.091 C 167.487 11.305,167.755 11.825,167.867 12.245 C 168.021 12.819,168.207 13.089,168.614 13.329 C 168.912 13.505,169.202 13.831,169.257 14.054 C 169.313 14.276,169.529 14.536,169.736 14.630 C 169.944 14.725,170.242 15.072,170.398 15.401 C 170.554 15.730,170.777 16.000,170.894 16.000 C 171.010 16.000,171.228 16.257,171.377 16.571 C 171.577 16.990,171.775 17.157,172.116 17.196 C 172.458 17.236,172.654 17.402,172.851 17.821 C 172.998 18.135,173.281 18.451,173.478 18.524 C 173.675 18.597,173.928 18.865,174.040 19.120 C 174.153 19.375,174.452 19.782,174.706 20.025 C 175.577 20.861,174.601 21.943,173.564 21.291 C 172.963 20.914,172.825 21.686,172.871 25.173 L 172.917 28.562 173.750 28.778 C 174.208 28.896,174.827 28.995,175.125 28.997 C 175.423 28.999,175.667 29.065,175.667 29.145 C 175.667 29.224,175.883 29.264,176.148 29.234 C 176.652 29.175,177.490 29.770,177.510 30.200 C 177.516 30.319,177.550 30.792,177.587 31.250 C 177.623 31.708,177.696 34.183,177.749 36.750 C 177.802 39.317,177.881 41.585,177.925 41.792 L 178.006 42.167 184.729 42.167 C 192.262 42.167,193.506 42.096,193.620 41.662 C 193.661 41.504,193.903 41.221,194.158 41.033 C 194.458 40.811,194.688 40.426,194.811 39.938 C 194.915 39.524,195.147 39.083,195.326 38.957 C 195.505 38.832,195.799 38.385,195.980 37.964 C 196.249 37.335,196.407 37.177,196.862 37.077 C 197.167 37.010,197.511 36.821,197.626 36.657 C 197.870 36.308,198.584 36.061,199.750 35.921 C 200.841 35.790,201.187 35.683,201.550 35.363 C 201.919 35.039,202.962 35.081,203.355 35.436 C 204.206 36.207,204.213 38.804,203.365 39.073 C 203.197 39.126,202.938 39.425,202.790 39.737 C 202.641 40.050,202.370 40.352,202.188 40.410 C 202.006 40.468,201.705 40.774,201.518 41.091 C 201.331 41.407,201.082 41.668,200.964 41.669 C 200.311 41.677,200.264 42.627,200.762 45.753 C 200.826 46.156,200.757 46.907,200.585 47.667 C 200.097 49.820,199.980 50.122,199.562 50.313 C 199.323 50.422,199.162 50.642,199.154 50.871 C 199.118 51.966,198.785 52.773,198.307 52.925 C 198.138 52.979,198.000 53.117,198.000 53.232 C 198.000 53.564,197.265 54.167,196.861 54.167 C 196.632 54.167,196.422 54.321,196.307 54.574 C 196.138 54.947,195.130 55.500,194.621 55.500 C 194.508 55.500,194.207 55.721,193.953 55.990 C 193.698 56.260,193.323 56.533,193.120 56.596 C 192.916 56.659,192.469 56.963,192.125 57.272 C 191.767 57.592,191.320 57.833,191.083 57.833 C 190.676 57.833,190.000 58.347,190.000 58.655 C 190.000 58.828,189.699 58.940,188.841 59.086 C 188.525 59.139,187.988 59.340,187.648 59.531 C 187.065 59.858,186.955 59.866,185.723 59.665 C 183.920 59.370,182.177 59.224,181.973 59.350 C 181.631 59.562,181.723 61.109,182.102 61.528 C 182.555 62.029,182.638 62.368,182.840 64.577 C 182.965 65.940,183.085 66.489,183.312 66.743 C 183.790 67.276,183.886 67.639,184.000 69.333 C 184.100 70.823,184.229 71.272,184.910 72.500 C 185.037 72.729,185.186 73.517,185.241 74.250 C 185.392 76.253,185.518 76.995,185.749 77.225 C 186.306 77.782,186.542 78.601,186.600 80.178 C 186.675 82.194,186.843 82.702,187.401 82.600 C 187.660 82.554,187.842 82.617,187.903 82.773 C 188.109 83.312,189.243 82.989,189.302 82.375 C 189.348 81.903,189.415 81.833,189.830 81.833 C 190.445 81.833,191.269 81.358,191.488 80.877 C 191.607 80.615,191.803 80.500,192.130 80.500 C 192.671 80.500,193.000 80.234,193.000 79.795 C 193.000 79.483,193.077 79.436,193.875 79.261 C 194.268 79.175,194.333 79.078,194.333 78.580 C 194.333 78.032,194.364 78.000,194.899 78.000 C 195.477 78.000,195.667 77.790,195.667 77.153 C 195.667 76.949,195.782 76.833,195.986 76.833 C 196.624 76.833,196.833 76.643,196.833 76.066 L 196.833 75.500 197.713 75.500 C 198.692 75.500,199.333 75.167,199.333 74.657 C 199.333 74.426,199.448 74.333,199.736 74.333 C 200.238 74.333,200.667 74.176,200.667 73.991 C 200.667 73.614,201.486 73.000,201.988 73.000 C 202.729 73.000,203.167 72.726,203.167 72.264 C 203.167 71.900,203.244 71.867,204.258 71.803 C 205.268 71.738,205.390 71.688,205.898 71.117 L 206.446 70.500 210.056 70.500 C 213.078 70.500,213.667 70.539,213.667 70.739 C 213.667 71.270,214.664 71.722,216.011 71.800 C 217.061 71.860,217.320 71.929,217.381 72.164 C 217.509 72.655,218.455 73.000,219.671 73.000 C 220.778 73.000,220.793 73.006,220.890 73.490 C 221.013 74.109,221.711 74.331,223.536 74.332 C 224.648 74.333,224.846 74.378,224.999 74.665 C 225.401 75.416,225.908 75.500,230.022 75.500 C 234.157 75.500,234.819 75.400,235.182 74.721 C 235.368 74.374,235.508 74.333,236.508 74.333 C 237.826 74.333,238.770 73.989,239.032 73.412 C 239.187 73.072,239.340 73.000,239.902 72.998 C 240.737 72.995,241.363 72.699,241.581 72.205 C 241.683 71.974,241.892 71.833,242.134 71.833 C 242.800 71.833,243.167 71.532,243.167 70.985 C 243.167 70.282,244.503 70.295,244.667 71.000 C 244.774 71.461,245.528 71.808,246.458 71.824 C 246.946 71.832,247.000 71.883,247.000 72.330 C 247.000 72.887,247.176 72.966,248.583 73.040 C 249.360 73.080,249.420 73.115,249.470 73.550 C 249.541 74.171,250.013 74.333,251.743 74.333 C 253.089 74.333,253.134 74.346,253.237 74.756 C 253.403 75.418,253.925 75.500,257.986 75.500 C 262.070 75.500,262.770 75.394,262.932 74.748 C 263.024 74.381,263.111 74.360,264.777 74.306 L 266.526 74.250 267.099 73.625 C 267.637 73.038,267.731 73.000,268.658 73.000 C 269.898 73.000,270.463 72.789,270.591 72.278 C 270.685 71.903,270.781 71.873,272.148 71.795 C 273.776 71.702,274.285 71.510,274.363 70.959 L 274.417 70.583 278.242 70.583 L 282.068 70.583 282.166 71.000 C 282.277 71.474,283.035 71.809,284.030 71.824 C 284.494 71.831,284.670 71.915,284.751 72.168 C 284.891 72.609,285.669 73.000,286.408 73.000 C 286.920 73.000,287.000 73.053,287.000 73.396 C 287.000 73.875,287.243 74.091,287.951 74.242 C 288.260 74.308,288.527 74.489,288.585 74.670 C 288.707 75.056,289.558 75.500,290.174 75.500 C 290.515 75.500,290.656 75.600,290.730 75.896 C 290.959 76.808,292.675 76.822,292.903 75.912 C 292.981 75.601,293.131 75.509,293.626 75.468 C 294.196 75.421,294.255 75.369,294.302 74.875 C 294.349 74.390,294.410 74.333,294.886 74.328 C 295.457 74.322,295.999 73.958,296.315 73.368 C 296.466 73.086,296.662 73.000,297.155 73.000 C 297.676 73.000,297.892 72.894,298.288 72.442 C 298.718 71.953,298.904 71.873,299.812 71.791 C 300.968 71.686,301.667 71.324,301.667 70.829 C 301.667 70.308,307.317 70.318,307.453 70.840 C 307.593 71.375,308.460 71.716,309.895 71.801 C 311.111 71.873,311.249 71.920,311.785 72.439 C 312.325 72.964,312.434 73.000,313.494 73.000 C 314.573 73.000,314.635 73.021,314.817 73.461 C 315.061 74.051,315.930 74.333,317.497 74.333 C 318.389 74.333,318.667 74.389,318.667 74.567 C 318.667 75.371,319.544 75.500,324.998 75.500 C 330.507 75.500,330.667 75.476,330.667 74.655 C 330.667 74.369,330.792 74.333,331.792 74.332 C 333.451 74.331,334.117 74.104,334.251 73.496 C 334.349 73.050,334.425 73.000,335.002 73.000 C 335.906 73.000,336.479 72.742,336.666 72.253 C 336.784 71.941,336.946 71.833,337.296 71.833 C 337.867 71.833,338.167 71.563,338.167 71.050 C 338.167 70.714,338.249 70.667,338.833 70.667 C 339.457 70.667,339.500 70.697,339.500 71.149 C 339.500 71.650,339.740 71.833,340.394 71.833 C 340.644 71.833,340.817 71.984,340.939 72.308 C 341.127 72.805,341.636 73.000,342.750 73.000 C 343.216 73.000,343.305 73.068,343.390 73.490 C 343.511 74.095,344.208 74.331,345.875 74.332 C 346.959 74.333,347.000 74.348,347.000 74.744 C 347.000 75.453,347.353 75.500,352.713 75.500 C 358.123 75.500,358.757 75.413,358.958 74.644 C 359.027 74.377,359.209 74.333,360.249 74.333 C 361.679 74.333,362.611 74.001,362.835 73.412 C 362.981 73.029,363.072 73.000,364.145 73.000 C 365.246 73.000,365.321 72.974,365.791 72.439 C 366.264 71.901,366.342 71.875,367.684 71.804 C 369.163 71.726,369.895 71.426,370.088 70.818 C 370.182 70.521,370.380 70.500,373.020 70.500 L 375.851 70.500 376.013 70.967 C 376.207 71.521,377.134 71.833,378.586 71.833 C 379.483 71.833,379.500 71.842,379.500 72.316 C 379.500 72.852,379.735 73.000,380.584 73.000 C 381.027 73.000,381.257 73.136,381.711 73.667 C 382.096 74.116,382.418 74.333,382.700 74.333 C 383.029 74.333,383.151 74.449,383.273 74.875 C 383.406 75.343,383.510 75.424,384.031 75.467 C 384.515 75.508,384.656 75.601,384.739 75.932 C 384.972 76.860,386.487 76.739,387.500 75.712 L 388.083 75.120 388.083 70.518 C 388.083 65.582,387.989 65.011,387.131 64.739 C 386.967 64.687,386.833 64.574,386.833 64.489 C 386.833 64.403,386.576 64.333,386.261 64.333 C 385.736 64.333,385.683 64.288,385.636 63.792 C 385.588 63.299,385.528 63.245,384.970 63.199 C 384.444 63.155,384.340 63.078,384.249 62.662 C 384.133 62.135,383.457 61.836,382.375 61.834 C 381.921 61.833,381.833 61.771,381.833 61.450 C 381.833 60.831,381.516 60.667,380.319 60.667 C 379.366 60.667,379.194 60.621,379.123 60.350 C 378.890 59.459,378.574 59.417,372.140 59.417 L 366.183 59.417 365.543 60.042 C 364.931 60.639,364.853 60.667,363.774 60.667 C 362.444 60.667,362.000 60.856,362.000 61.423 C 362.000 61.817,361.956 61.833,360.929 61.833 C 360.254 61.833,359.774 61.916,359.633 62.057 C 359.510 62.180,359.243 62.370,359.038 62.480 C 358.834 62.589,358.667 62.788,358.667 62.923 C 358.667 63.117,358.388 63.167,357.292 63.168 C 355.491 63.169,354.701 63.388,354.567 63.924 L 354.464 64.333 351.899 64.333 C 349.469 64.333,349.333 64.316,349.333 64.009 C 349.333 63.455,348.697 63.167,347.471 63.167 C 346.362 63.167,346.343 63.159,345.813 62.500 C 345.414 62.003,345.157 61.833,344.801 61.833 C 344.452 61.833,344.285 61.727,344.173 61.433 C 343.973 60.906,343.797 60.813,342.775 60.688 C 341.973 60.590,341.913 60.550,341.860 60.084 C 341.794 59.505,341.595 59.339,340.958 59.336 C 340.618 59.334,340.500 59.251,340.500 59.012 C 340.500 57.866,337.385 57.774,337.099 58.912 C 337.023 59.217,336.883 59.333,336.592 59.333 C 336.077 59.333,335.667 59.745,335.667 60.262 C 335.667 60.596,335.584 60.667,335.192 60.667 C 334.427 60.667,333.727 60.985,333.527 61.425 C 333.395 61.714,333.206 61.834,332.879 61.836 C 332.238 61.839,332.039 62.004,331.973 62.584 L 331.917 63.083 330.277 63.168 C 328.604 63.254,328.167 63.451,328.167 64.115 C 328.167 64.285,327.620 64.333,325.693 64.333 L 323.220 64.333 323.029 63.913 C 322.765 63.335,322.213 63.167,320.578 63.167 C 319.337 63.167,319.158 63.128,318.995 62.824 C 318.656 62.191,317.833 61.835,316.708 61.834 C 315.791 61.833,315.667 61.795,315.667 61.512 C 315.667 60.878,315.223 60.667,313.894 60.667 C 312.666 60.667,312.634 60.656,312.055 60.042 L 311.466 59.417 305.890 59.365 C 299.682 59.307,298.777 59.418,298.565 60.263 C 298.470 60.641,298.391 60.667,297.327 60.667 C 296.129 60.667,295.667 60.896,295.667 61.489 C 295.667 61.724,295.483 61.808,294.792 61.889 C 293.919 61.991,293.333 62.407,293.333 62.925 C 293.333 63.061,293.091 63.167,292.708 63.198 C 292.135 63.246,292.076 63.298,291.995 63.833 L 291.907 64.417 291.795 63.897 C 291.682 63.370,291.346 63.174,290.550 63.169 C 290.169 63.167,289.333 62.506,289.333 62.207 C 289.333 61.998,288.936 61.833,288.430 61.833 C 288.189 61.833,287.984 61.682,287.862 61.413 C 287.632 60.909,287.061 60.667,286.101 60.667 C 285.517 60.667,285.351 60.594,285.171 60.259 C 284.802 59.568,283.897 59.333,281.598 59.333 C 279.900 59.333,279.408 59.275,278.810 59.004 C 277.880 58.582,277.073 58.580,276.290 59.000 C 275.762 59.283,275.349 59.333,273.574 59.333 C 270.951 59.333,270.089 59.528,269.799 60.185 C 269.592 60.651,269.546 60.667,268.409 60.667 C 267.306 60.667,267.194 60.702,266.621 61.226 C 266.108 61.696,265.846 61.801,264.992 61.878 C 263.915 61.976,263.333 62.320,263.333 62.859 C 263.333 63.139,263.173 63.167,261.570 63.167 C 259.886 63.167,257.646 63.670,257.108 64.169 C 257.030 64.242,256.824 64.180,256.651 64.031 C 255.977 63.454,254.948 63.185,253.375 63.176 C 251.865 63.167,251.833 63.158,251.833 62.770 C 251.833 62.196,251.475 61.981,250.348 61.879 C 249.376 61.791,249.350 61.775,249.301 61.269 C 249.256 60.808,249.184 60.744,248.667 60.698 C 248.199 60.657,248.034 60.542,247.833 60.117 C 247.643 59.715,247.428 59.552,246.937 59.439 C 246.271 59.286,245.805 58.935,245.617 58.446 C 245.316 57.661,242.000 58.180,242.000 59.012 C 242.000 59.226,241.885 59.333,241.656 59.333 C 241.037 59.333,240.667 59.647,240.667 60.173 C 240.667 60.637,240.627 60.667,240.011 60.667 C 239.074 60.667,238.526 60.920,238.403 61.411 C 238.316 61.758,238.197 61.833,237.740 61.833 C 237.434 61.833,237.123 61.935,237.050 62.059 C 236.977 62.183,236.748 62.373,236.542 62.482 C 236.335 62.590,236.167 62.778,236.167 62.901 C 236.167 63.066,235.731 63.143,234.458 63.203 C 233.013 63.270,232.595 63.357,231.742 63.767 L 230.733 64.252 230.178 63.878 C 229.361 63.328,228.606 63.169,226.800 63.168 C 225.174 63.167,224.333 62.840,224.333 62.209 C 224.333 61.974,223.744 61.838,222.712 61.836 C 221.915 61.834,221.830 61.796,221.732 61.405 C 221.590 60.837,221.081 60.667,219.524 60.667 L 218.236 60.667 218.076 60.125 C 217.879 59.454,217.586 59.380,215.041 59.353 C 213.509 59.337,213.051 59.272,212.544 59.000 C 211.672 58.533,209.662 58.533,208.790 59.000 C 208.305 59.260,207.884 59.328,206.876 59.308 C 206.165 59.295,205.808 59.250,206.083 59.210 C 206.810 59.103,206.828 59.022,206.831 55.875 L 206.833 53.000 207.230 53.000 C 208.054 53.000,208.080 52.832,208.135 47.163 C 208.194 41.175,208.147 40.775,207.369 40.698 L 206.841 40.646 206.795 37.615 L 206.750 34.583 206.208 34.531 L 205.667 34.479 205.664 33.031 C 205.661 31.084,205.588 30.865,204.898 30.736 L 204.333 30.630 204.333 29.476 C 204.333 28.531,204.281 28.303,204.042 28.211 C 203.482 27.997,203.178 27.441,203.172 26.620 C 203.168 26.045,203.092 25.794,202.898 25.720 C 202.210 25.456,201.833 24.888,201.833 24.113 C 201.833 23.371,201.816 23.345,201.250 23.239 C 200.720 23.140,200.667 23.078,200.667 22.565 C 200.667 22.254,200.608 22.000,200.537 22.000 C 200.465 22.000,200.321 21.775,200.218 21.500 C 200.091 21.164,199.915 21.000,199.681 21.000 C 199.388 21.000,199.333 20.898,199.333 20.351 C 199.333 19.685,199.149 19.500,198.486 19.500 C 198.247 19.500,198.167 19.382,198.167 19.033 C 198.167 18.441,197.892 18.167,197.300 18.167 C 196.878 18.167,196.833 18.111,196.833 17.583 C 196.833 17.030,196.804 17.000,196.260 17.000 C 195.718 17.000,195.684 16.966,195.635 16.375 C 195.586 15.784,195.549 15.747,194.958 15.698 C 194.367 15.649,194.333 15.615,194.333 15.073 C 194.333 14.529,194.304 14.500,193.750 14.500 C 193.222 14.500,193.167 14.456,193.167 14.033 C 193.167 13.441,192.892 13.167,192.300 13.167 C 191.924 13.167,191.833 13.092,191.833 12.783 C 191.833 12.272,191.534 12.000,190.970 12.000 C 190.622 12.000,190.482 11.902,190.408 11.609 C 190.294 11.154,189.390 10.667,188.661 10.667 C 188.285 10.667,188.167 10.590,188.167 10.347 C 188.167 9.663,187.987 9.500,187.229 9.500 C 186.606 9.500,186.464 9.436,186.303 9.083 C 186.199 8.854,186.021 8.667,185.908 8.667 C 185.795 8.667,185.659 8.554,185.606 8.417 C 185.543 8.251,185.281 8.167,184.833 8.167 C 184.281 8.167,184.048 8.059,183.572 7.583 C 183.017 7.028,182.933 7.000,181.828 7.000 C 180.736 7.000,180.667 6.978,180.664 6.625 C 180.659 5.847,180.452 5.753,178.599 5.693 L 176.852 5.637 176.801 5.110 L 176.750 4.583 174.333 4.500 C 171.849 4.414,171.136 4.225,170.560 3.500 C 170.409 3.310,169.895 3.236,168.417 3.194 L 166.473 3.137 166.668 3.502 M163.118 14.667 C 163.014 15.066,163.212 15.098,163.571 14.738 C 163.910 14.400,163.901 14.333,163.519 14.333 C 163.346 14.333,163.167 14.482,163.118 14.667 M161.774 16.170 C 161.696 16.559,161.563 16.696,161.185 16.771 C 160.899 16.829,160.662 17.000,160.614 17.185 C 160.507 17.594,160.704 17.586,161.083 17.167 C 161.249 16.983,161.486 16.833,161.609 16.833 C 161.732 16.833,161.833 16.721,161.833 16.585 C 161.833 16.448,161.983 16.242,162.167 16.128 C 162.585 15.866,162.594 15.667,162.188 15.667 C 161.973 15.667,161.843 15.825,161.774 16.170 M168.749 16.999 C 169.002 17.407,169.500 17.522,169.500 17.173 C 169.500 16.920,169.391 16.833,169.073 16.833 C 168.833 16.833,168.692 16.906,168.749 16.999 M159.333 18.501 C 159.333 18.794,159.375 18.810,159.667 18.628 C 159.850 18.513,160.000 18.363,160.000 18.293 C 160.000 18.224,159.850 18.167,159.667 18.167 C 159.444 18.167,159.333 18.278,159.333 18.501 M20.562 23.348 C 20.215 23.448,19.971 23.666,19.834 23.999 C 19.655 24.431,19.539 24.500,18.998 24.500 C 18.353 24.500,18.167 24.690,18.167 25.347 C 18.167 25.551,18.051 25.667,17.847 25.667 C 17.213 25.667,17.000 25.857,17.000 26.424 C 17.000 26.946,16.962 26.983,16.375 27.032 C 15.784 27.081,15.747 27.117,15.698 27.708 C 15.668 28.079,15.560 28.333,15.432 28.333 C 14.848 28.333,14.595 28.996,14.526 30.711 L 14.459 32.399 13.795 33.037 L 13.131 33.675 13.205 36.796 C 13.286 40.255,13.333 40.475,14.021 40.613 L 14.500 40.708 14.500 42.321 C 14.500 44.036,14.616 44.333,15.283 44.333 C 15.610 44.333,15.667 44.419,15.667 44.917 C 15.667 45.324,15.742 45.500,15.917 45.500 C 16.054 45.500,16.167 45.580,16.167 45.679 C 16.167 46.169,18.323 48.000,18.900 48.000 C 19.450 48.000,19.483 48.032,19.532 48.625 L 19.583 49.250 20.888 49.299 C 22.125 49.345,22.222 49.378,22.768 49.924 L 23.344 50.500 27.389 50.500 C 31.668 50.500,31.833 50.471,31.833 49.717 C 31.833 49.353,31.893 49.333,33.006 49.333 C 34.159 49.333,35.167 48.791,35.167 48.170 C 35.167 48.087,35.523 47.995,35.958 47.967 C 36.714 47.919,36.752 47.893,36.801 47.385 C 36.846 46.922,36.922 46.846,37.385 46.801 C 37.844 46.757,37.937 46.666,38.068 46.136 C 38.174 45.709,38.333 45.494,38.593 45.429 C 39.035 45.318,39.333 44.581,39.333 43.598 C 39.333 43.047,39.407 42.880,39.708 42.748 C 40.563 42.373,40.650 41.814,40.659 36.646 C 40.668 30.968,40.660 30.900,39.906 30.759 L 39.348 30.654 39.299 29.452 L 39.250 28.250 38.708 28.198 C 38.212 28.150,38.167 28.097,38.167 27.573 C 38.167 27.175,38.090 27.000,37.917 27.000 C 37.779 27.000,37.667 26.930,37.667 26.844 C 37.667 26.362,35.514 24.500,34.957 24.500 C 34.451 24.500,34.363 24.435,34.226 23.959 C 34.109 23.548,33.952 23.392,33.577 23.312 C 32.805 23.146,21.146 23.179,20.562 23.348 M43.059 23.282 C 42.036 23.482,42.088 22.810,42.038 36.418 C 41.996 47.721,42.016 48.825,42.266 49.075 C 42.508 49.318,43.025 49.343,46.765 49.300 C 52.225 49.236,51.730 49.642,51.809 45.166 L 51.868 41.841 54.892 41.795 L 57.917 41.750 58.076 41.208 C 58.235 40.669,58.240 40.667,59.326 40.666 C 60.952 40.664,61.618 40.434,61.751 39.829 C 61.841 39.419,61.943 39.333,62.341 39.333 C 62.847 39.333,63.167 38.957,63.167 38.362 C 63.167 38.152,63.317 37.998,63.589 37.930 C 64.238 37.767,64.333 37.239,64.333 33.822 L 64.333 30.667 67.500 30.667 L 70.667 30.667 70.677 39.042 C 70.687 47.472,70.758 48.908,71.185 49.186 C 71.698 49.521,80.003 49.283,80.264 48.926 C 80.461 48.657,80.500 47.113,80.500 39.635 L 80.500 30.667 83.875 30.664 C 87.509 30.662,87.943 30.613,88.055 30.191 C 88.095 30.040,88.137 30.123,88.147 30.375 C 88.164 30.774,88.104 30.833,87.684 30.833 C 86.998 30.833,87.000 30.818,87.000 36.472 L 87.000 41.583 87.583 42.049 C 88.104 42.465,88.167 42.600,88.167 43.315 C 88.167 44.283,88.559 45.134,89.101 45.340 C 89.392 45.451,89.500 45.619,89.500 45.963 C 89.500 46.525,89.769 46.833,90.259 46.833 C 90.522 46.833,90.660 46.979,90.773 47.375 C 90.907 47.846,91.008 47.923,91.547 47.968 C 92.011 48.007,92.167 48.095,92.167 48.318 C 92.167 48.947,92.789 49.247,94.226 49.308 C 95.562 49.366,95.587 49.375,95.833 49.892 L 96.083 50.417 100.083 50.461 C 104.341 50.509,104.795 50.445,105.173 49.739 C 105.374 49.363,105.484 49.333,106.677 49.333 C 108.046 49.333,108.167 49.260,108.167 48.425 C 108.167 48.096,108.271 48.032,108.923 47.958 C 109.673 47.874,110.333 47.465,110.333 47.084 C 110.333 46.976,110.521 46.801,110.750 46.697 C 111.300 46.446,111.832 45.551,111.833 44.875 C 111.833 44.386,111.881 44.333,112.327 44.333 C 112.978 44.333,113.167 43.951,113.167 42.631 C 113.167 41.838,113.239 41.507,113.458 41.306 C 114.328 40.507,114.333 40.478,114.333 36.881 C 114.333 35.019,114.267 33.365,114.186 33.206 C 114.105 33.047,113.942 32.710,113.825 32.458 C 113.707 32.206,113.521 32.000,113.411 32.000 C 113.277 32.000,113.185 31.488,113.129 30.420 C 113.041 28.730,112.870 28.333,112.230 28.333 C 111.878 28.333,111.833 28.258,111.833 27.667 C 111.833 27.016,111.819 27.000,111.250 27.000 C 110.698 27.000,110.667 26.970,110.667 26.434 C 110.667 25.839,110.460 25.667,109.747 25.667 C 109.426 25.667,109.345 25.568,109.302 25.125 C 109.254 24.629,109.197 24.579,108.617 24.531 C 108.143 24.492,107.948 24.386,107.843 24.108 C 107.512 23.239,107.607 23.250,100.500 23.250 C 93.386 23.250,93.333 23.256,93.333 24.104 C 93.333 24.455,93.258 24.500,92.667 24.500 C 92.280 24.500,92.000 24.580,92.000 24.689 C 92.000 24.914,91.220 25.667,90.986 25.667 C 90.896 25.667,90.777 25.787,90.720 25.935 C 90.573 26.318,89.913 27.000,89.689 27.000 C 89.584 27.000,89.500 27.259,89.500 27.583 C 89.500 28.118,89.459 28.167,89.010 28.167 C 88.740 28.167,88.459 28.260,88.385 28.375 C 88.311 28.490,88.212 27.446,88.167 26.055 C 88.121 24.665,88.021 23.465,87.944 23.389 C 87.768 23.212,63.573 23.205,63.397 23.381 C 63.325 23.453,63.225 24.091,63.175 24.798 C 63.122 25.544,63.027 25.996,62.948 25.875 C 62.874 25.760,62.593 25.667,62.323 25.667 C 61.894 25.667,61.833 25.607,61.833 25.184 C 61.833 24.602,61.614 24.500,60.354 24.500 C 59.424 24.500,59.399 24.488,59.243 23.958 C 59.121 23.546,58.964 23.392,58.583 23.311 C 58.036 23.196,43.638 23.169,43.059 23.282 M215.543 23.278 C 214.543 23.488,214.399 25.287,215.359 25.591 C 215.579 25.661,215.672 25.863,215.686 26.303 C 215.726 27.547,215.882 27.907,216.418 27.999 C 216.855 28.074,216.923 28.162,216.968 28.709 C 217.017 29.299,217.051 29.333,217.593 29.333 C 218.129 29.333,218.167 29.369,218.168 29.875 C 218.169 30.966,218.478 31.671,219.001 31.775 C 219.412 31.857,219.489 31.959,219.533 32.477 C 219.578 33.021,219.637 33.089,220.103 33.134 C 220.592 33.181,220.628 33.233,220.719 34.004 C 220.848 35.094,221.085 35.500,221.589 35.500 C 221.965 35.500,222.000 35.564,222.000 36.250 C 222.000 36.936,221.965 37.000,221.589 37.000 C 221.070 37.000,220.833 37.432,220.713 38.598 C 220.621 39.492,220.615 39.500,220.060 39.500 C 219.535 39.500,219.500 39.535,219.500 40.063 C 219.500 40.552,219.436 40.638,219.010 40.723 C 218.478 40.829,218.169 41.525,218.168 42.625 C 218.167 43.131,218.129 43.167,217.593 43.167 C 217.051 43.167,217.017 43.201,216.968 43.792 C 216.927 44.287,216.841 44.427,216.554 44.468 C 216.014 44.545,215.822 44.875,215.716 45.905 C 215.632 46.716,215.574 46.833,215.260 46.833 C 214.699 46.833,214.500 47.161,214.500 48.083 C 214.500 49.373,214.349 49.333,219.251 49.333 C 224.348 49.333,224.189 49.380,224.299 47.856 L 224.373 46.833 224.919 46.833 C 225.490 46.833,225.667 46.619,225.667 45.924 C 225.667 45.636,225.785 45.518,226.145 45.446 C 226.679 45.339,226.827 45.000,226.831 43.875 L 226.833 43.167 227.500 43.167 C 228.131 43.167,228.167 43.194,228.167 43.672 C 228.167 43.967,228.271 44.217,228.417 44.273 C 228.554 44.326,228.667 44.475,228.667 44.605 C 228.667 44.734,228.854 44.926,229.083 45.030 C 229.417 45.182,229.500 45.341,229.500 45.827 C 229.500 46.526,229.739 46.833,230.283 46.833 C 230.610 46.833,230.667 46.919,230.667 47.417 C 230.667 47.787,230.747 48.000,230.885 48.000 C 231.155 48.000,232.000 48.861,232.000 49.136 C 232.000 49.290,233.856 49.327,240.042 49.293 L 248.083 49.250 248.132 48.042 C 248.175 46.986,248.221 46.833,248.495 46.833 C 248.931 46.833,249.333 46.388,249.333 45.905 L 249.333 45.500 253.167 45.500 L 257.000 45.500 257.000 46.605 C 257.000 47.653,257.031 47.740,257.583 48.261 C 257.904 48.563,258.167 48.928,258.167 49.072 C 258.167 49.305,258.927 49.333,265.213 49.333 C 272.885 49.333,273.000 49.320,273.000 48.407 C 273.000 48.012,273.037 48.000,274.232 48.000 C 275.521 48.000,275.667 47.914,275.667 47.153 C 275.667 46.900,275.786 46.833,276.240 46.833 C 276.782 46.833,276.816 46.799,276.865 46.208 C 276.912 45.634,276.964 45.577,277.500 45.500 C 278.039 45.423,278.090 45.365,278.167 44.743 C 278.247 44.093,278.420 43.788,279.042 43.201 C 279.300 42.957,279.333 42.554,279.333 39.650 C 279.333 36.880,279.374 36.341,279.594 36.158 C 280.203 35.652,280.387 34.941,280.466 32.792 L 280.544 30.667 281.271 30.667 L 281.997 30.667 282.040 39.958 L 282.083 49.250 286.333 49.250 L 290.583 49.250 290.626 36.471 C 290.664 25.018,290.641 23.665,290.406 23.430 C 290.173 23.197,289.125 23.167,281.231 23.167 L 272.320 23.167 271.812 23.542 C 270.947 24.180,270.833 24.709,270.833 28.077 C 270.833 29.746,270.784 33.258,270.723 35.881 L 270.613 40.650 270.098 40.700 C 269.652 40.743,269.576 40.822,269.531 41.292 L 269.479 41.833 268.448 41.846 C 266.624 41.868,265.740 42.472,265.660 43.750 C 265.637 44.114,265.606 44.160,265.546 43.917 C 265.420 43.402,265.163 43.167,264.730 43.167 C 264.348 43.167,264.333 43.120,264.333 41.942 C 264.333 40.418,264.101 39.698,263.567 39.564 C 263.195 39.471,263.167 39.386,263.167 38.371 C 263.167 37.250,263.165 37.246,262.216 36.271 C 261.917 35.963,261.840 35.664,261.800 34.655 C 261.750 33.428,261.745 33.415,261.230 33.263 L 260.709 33.110 260.628 31.558 C 260.541 29.897,260.368 29.500,259.730 29.500 C 259.350 29.500,259.333 29.451,259.333 28.325 C 259.333 27.097,259.082 26.361,258.527 25.968 C 258.304 25.810,258.192 25.456,258.123 24.689 C 257.988 23.179,258.243 23.257,253.250 23.198 C 248.432 23.142,248.167 23.184,248.167 24.003 C 248.167 24.391,248.077 24.516,247.738 24.601 C 247.167 24.744,247.000 25.253,247.000 26.844 C 247.000 28.104,246.982 28.167,246.625 28.169 C 245.910 28.174,245.784 28.402,245.701 29.833 C 245.622 31.199,245.248 32.000,244.689 32.000 C 244.565 32.000,244.500 32.428,244.500 33.247 C 244.500 34.428,244.479 34.499,244.095 34.595 C 243.541 34.734,243.167 35.738,243.167 37.087 C 243.167 38.042,243.130 38.167,242.845 38.167 C 242.172 38.167,242.000 38.594,242.000 40.262 C 242.000 41.780,241.987 41.833,241.625 41.836 C 240.919 41.841,240.765 42.085,240.696 43.320 C 240.636 44.376,240.574 44.551,240.076 45.080 C 239.392 45.805,239.333 45.807,239.333 45.101 C 239.333 44.523,239.124 44.333,238.486 44.333 C 238.246 44.333,238.167 44.215,238.167 43.859 C 238.167 43.191,237.702 42.339,237.243 42.164 C 236.946 42.051,236.842 41.867,236.802 41.383 C 236.754 40.803,236.704 40.746,236.208 40.698 C 235.712 40.650,235.667 40.597,235.667 40.073 C 235.667 39.758,235.600 39.500,235.518 39.500 C 235.436 39.500,235.322 39.310,235.263 39.078 C 235.205 38.845,234.976 38.573,234.754 38.472 C 234.454 38.335,234.338 38.133,234.300 37.686 C 234.255 37.140,234.199 37.078,233.708 37.031 C 233.203 36.982,233.167 36.937,233.167 36.357 C 233.167 35.800,233.223 35.719,233.708 35.576 C 234.178 35.438,234.257 35.334,234.301 34.800 C 234.337 34.372,234.448 34.153,234.664 34.084 C 235.082 33.952,235.667 32.930,235.667 32.334 C 235.667 31.915,235.735 31.848,236.208 31.802 C 236.701 31.755,236.755 31.695,236.801 31.133 C 236.838 30.689,236.946 30.487,237.188 30.410 C 237.648 30.264,238.165 29.364,238.166 28.708 C 238.167 28.286,238.237 28.167,238.486 28.167 C 239.127 28.167,239.333 27.977,239.333 27.390 C 239.333 26.904,239.409 26.790,239.827 26.644 C 240.418 26.438,240.506 26.203,240.531 24.758 C 240.557 23.190,240.743 23.258,236.263 23.195 L 232.376 23.140 231.521 23.995 C 230.987 24.529,230.667 24.993,230.667 25.234 C 230.667 25.525,230.535 25.656,230.125 25.773 C 229.632 25.914,229.579 25.993,229.530 26.663 C 229.478 27.396,229.069 27.977,228.435 28.220 C 228.257 28.288,228.167 28.525,228.167 28.921 C 228.167 29.511,228.157 29.519,227.542 29.468 L 226.917 29.417 226.830 28.443 C 226.744 27.473,226.434 27.000,225.885 27.000 C 225.757 27.000,225.667 26.807,225.667 26.533 C 225.667 25.948,225.393 25.667,224.823 25.667 C 224.407 25.667,224.374 25.609,224.283 24.724 C 224.127 23.217,224.237 23.254,219.786 23.224 C 217.658 23.210,215.749 23.234,215.543 23.278 M294.708 23.269 C 294.544 23.342,294.500 26.119,294.500 36.347 L 294.500 49.333 302.967 49.333 C 312.058 49.333,311.833 49.355,311.833 48.467 C 311.833 48.010,311.854 48.000,312.792 47.997 C 313.918 47.994,314.101 47.905,314.258 47.278 C 314.327 47.001,314.541 46.746,314.779 46.656 C 315.000 46.571,315.286 46.258,315.414 45.960 C 315.634 45.447,315.650 45.523,315.699 47.333 L 315.750 49.250 320.042 49.294 L 324.333 49.339 324.333 36.356 L 324.333 23.372 323.958 23.272 C 323.039 23.025,316.198 23.159,315.929 23.429 C 315.700 23.657,315.665 24.501,315.656 30.054 C 315.650 34.023,315.589 36.276,315.495 36.042 C 315.385 35.768,315.207 35.667,314.839 35.667 C 314.372 35.667,314.333 35.622,314.333 35.083 C 314.333 34.521,314.311 34.500,313.708 34.496 C 313.170 34.493,313.049 34.419,312.833 33.958 C 312.532 33.315,312.188 33.205,310.394 33.183 C 309.148 33.168,309.017 33.134,308.771 32.758 C 308.393 32.182,307.551 32.002,305.223 32.001 L 303.197 32.000 303.140 27.841 C 303.097 24.715,303.030 23.629,302.867 23.466 C 302.645 23.245,295.173 23.064,294.708 23.269 M328.367 23.367 C 328.215 23.519,328.167 26.652,328.167 36.450 L 328.167 49.333 331.917 49.333 L 335.667 49.333 335.667 44.083 L 335.667 38.833 336.311 38.833 L 336.955 38.833 337.039 39.998 C 337.125 41.212,337.341 41.667,337.831 41.667 C 338.072 41.667,338.136 41.868,338.207 42.852 C 338.295 44.082,338.443 44.326,339.107 44.331 C 339.356 44.333,339.499 44.471,339.578 44.790 C 339.746 45.458,339.881 45.495,342.197 45.497 C 345.056 45.501,345.667 45.160,345.667 43.558 C 345.667 43.076,345.723 43.000,346.077 43.000 C 346.631 43.000,346.833 42.559,346.833 41.356 C 346.833 40.543,346.889 40.338,347.131 40.261 C 347.294 40.210,347.575 39.923,347.756 39.625 L 348.083 39.083 348.173 44.167 C 348.222 46.962,348.278 49.270,348.298 49.295 C 348.317 49.319,350.227 49.319,352.542 49.295 L 356.750 49.250 356.790 36.500 C 356.814 28.655,356.768 23.654,356.671 23.500 C 356.421 23.106,347.683 23.032,346.841 23.417 C 346.061 23.774,345.667 24.627,345.667 25.961 L 345.667 26.979 345.125 27.031 L 344.583 27.083 344.534 28.292 C 344.488 29.433,344.464 29.500,344.096 29.500 C 343.525 29.500,343.336 29.835,343.223 31.051 C 343.141 31.924,343.059 32.156,342.809 32.221 C 342.638 32.266,342.358 32.613,342.188 32.993 L 341.879 33.683 341.795 32.511 C 341.707 31.272,341.493 30.833,340.980 30.833 C 340.713 30.833,340.666 30.702,340.664 29.958 C 340.661 28.617,340.545 28.357,339.898 28.236 L 339.333 28.130 339.333 27.014 C 339.333 25.972,339.295 25.857,338.750 25.262 C 338.374 24.851,338.167 24.459,338.167 24.158 C 338.167 23.183,338.082 23.167,333.105 23.167 C 329.797 23.167,328.512 23.221,328.367 23.367 M366.142 23.278 C 365.801 23.369,365.672 23.829,365.669 24.958 C 365.667 25.818,365.658 25.833,365.170 25.833 C 364.572 25.833,364.517 26.000,364.458 28.000 L 364.417 29.417 363.892 29.468 C 363.279 29.527,363.172 29.783,363.169 31.208 C 363.167 31.952,363.110 32.167,362.914 32.167 C 362.412 32.167,362.002 33.173,361.997 34.417 C 361.993 35.567,361.985 35.587,361.455 35.833 C 360.831 36.123,360.716 36.490,360.686 38.281 L 360.667 39.479 360.125 39.531 L 359.583 39.583 359.535 40.934 C 359.491 42.186,359.457 42.299,359.077 42.473 C 358.851 42.575,358.667 42.741,358.667 42.842 C 358.667 42.942,358.554 43.136,358.417 43.274 C 358.243 43.448,358.167 43.874,358.167 44.679 C 358.167 45.697,358.130 45.833,357.854 45.833 C 357.270 45.833,357.090 46.298,357.087 47.813 L 357.083 49.250 361.333 49.250 L 365.583 49.250 365.634 48.644 C 365.677 48.130,365.756 48.024,366.154 47.944 C 366.688 47.837,366.828 47.496,366.831 46.292 L 366.833 45.500 370.667 45.500 L 374.500 45.500 374.500 46.042 C 374.500 46.459,374.632 46.688,375.075 47.042 C 375.580 47.445,375.655 47.606,375.700 48.375 L 375.750 49.250 380.000 49.250 L 384.250 49.250 384.299 47.833 C 384.364 45.952,384.284 45.667,383.686 45.667 L 383.212 45.667 383.129 44.087 C 383.041 42.396,382.870 42.000,382.230 42.000 C 381.849 42.000,381.833 41.953,381.833 40.792 C 381.832 39.541,381.475 38.608,380.916 38.393 C 380.736 38.324,380.666 38.036,380.664 37.357 C 380.662 36.309,380.532 35.667,380.322 35.667 C 379.758 35.667,379.333 34.849,379.333 33.762 C 379.333 32.444,379.143 32.000,378.577 32.000 C 378.179 32.000,378.167 31.965,378.166 30.792 C 378.166 29.379,377.799 28.447,377.208 28.363 C 376.858 28.314,376.833 28.229,376.833 27.067 C 376.833 26.036,376.783 25.804,376.542 25.711 C 376.036 25.517,375.678 24.938,375.672 24.304 C 375.662 23.165,375.659 23.164,370.780 23.186 C 368.380 23.197,366.293 23.238,366.142 23.278 M27.550 29.775 C 27.843 29.926,28.181 30.188,28.301 30.358 C 28.429 30.539,28.722 30.667,29.009 30.667 C 29.410 30.667,29.500 30.737,29.500 31.050 C 29.500 31.261,29.590 31.523,29.700 31.633 C 29.810 31.743,30.072 31.833,30.283 31.833 C 30.627 31.833,30.668 31.915,30.683 32.625 C 30.710 33.881,30.864 34.238,31.424 34.334 L 31.917 34.419 31.964 36.293 C 32.002 37.824,31.968 38.167,31.774 38.167 C 31.174 38.167,30.827 38.733,30.721 39.882 C 30.642 40.745,30.543 41.054,30.309 41.180 C 30.139 41.271,30.000 41.455,30.000 41.589 C 30.000 41.723,29.887 41.833,29.750 41.833 C 29.613 41.833,29.500 41.934,29.500 42.057 C 29.500 42.179,29.313 42.365,29.083 42.470 C 28.854 42.574,28.667 42.774,28.667 42.913 C 28.667 43.121,28.399 43.167,27.171 43.167 L 25.676 43.167 25.537 42.628 C 25.431 42.221,25.270 42.054,24.874 41.940 C 24.450 41.819,24.342 41.692,24.301 41.270 C 24.257 40.818,24.179 40.743,23.708 40.698 L 23.167 40.646 23.167 36.239 L 23.167 31.833 23.750 31.833 C 24.306 31.833,24.333 31.806,24.333 31.250 C 24.333 30.722,24.377 30.667,24.802 30.667 C 25.379 30.667,26.650 30.072,26.776 29.742 C 26.892 29.440,26.901 29.441,27.550 29.775 M100.862 29.991 C 101.106 30.421,101.263 30.494,102.144 30.594 C 103.119 30.704,103.150 30.723,103.199 31.229 C 103.245 31.700,103.310 31.755,103.875 31.802 L 104.500 31.853 104.500 36.250 L 104.500 40.646 103.972 40.698 C 103.536 40.741,103.410 40.851,103.249 41.333 C 103.133 41.681,102.925 41.941,102.735 41.976 C 102.247 42.068,102.000 42.334,102.000 42.770 C 102.000 43.405,99.319 43.383,99.028 42.745 C 98.923 42.514,98.704 42.275,98.543 42.215 C 98.213 42.093,97.667 41.525,97.667 41.304 C 97.667 41.225,97.479 41.074,97.250 40.970 C 96.866 40.795,96.833 40.692,96.833 39.673 C 96.833 38.485,96.668 38.167,96.050 38.167 C 95.509 38.167,95.471 36.052,96.000 35.379 C 96.183 35.146,96.333 34.862,96.333 34.748 C 96.333 34.634,96.446 34.447,96.583 34.333 C 96.761 34.186,96.833 33.795,96.833 32.980 C 96.833 31.895,96.854 31.833,97.217 31.833 C 97.678 31.833,98.000 31.544,98.000 31.128 C 98.000 30.816,98.077 30.769,98.875 30.594 C 99.250 30.512,99.333 30.403,99.333 29.997 C 99.333 29.259,100.443 29.255,100.862 29.991 M154.333 30.492 C 154.333 30.601,154.896 30.667,155.833 30.667 C 156.658 30.667,157.333 30.602,157.333 30.522 C 157.333 30.442,156.658 30.363,155.833 30.347 C 154.877 30.327,154.333 30.380,154.333 30.492 M54.862 31.080 C 54.966 31.308,55.189 31.538,55.359 31.591 C 55.949 31.779,55.794 33.333,55.184 33.333 C 54.694 33.333,54.500 33.574,54.500 34.180 C 54.500 34.469,54.370 34.500,53.167 34.500 L 51.833 34.500 51.833 32.583 L 51.833 30.667 53.254 30.667 C 54.604 30.667,54.683 30.687,54.862 31.080 M253.470 37.211 C 253.575 37.465,253.850 37.744,254.080 37.832 C 254.769 38.094,254.571 38.167,253.167 38.167 L 251.833 38.167 251.832 37.292 C 251.831 36.494,251.886 36.365,252.457 35.833 L 253.083 35.250 253.181 36.000 C 253.235 36.412,253.365 36.958,253.470 37.211 M371.500 36.667 C 371.852 36.748,371.925 36.873,371.968 37.465 L 372.019 38.167 370.666 38.167 L 369.313 38.167 369.365 37.542 C 369.410 36.994,369.478 36.908,369.917 36.833 C 370.331 36.762,370.443 36.640,370.573 36.117 L 370.729 35.486 370.906 36.028 C 371.026 36.395,371.218 36.601,371.500 36.667 M158.328 36.009 C 158.228 36.198,158.178 36.441,158.219 36.551 C 158.259 36.660,158.347 36.544,158.414 36.293 C 158.481 36.041,158.603 35.877,158.684 35.928 C 158.766 35.978,158.833 35.940,158.833 35.843 C 158.833 35.545,158.522 35.647,158.328 36.009 M160.706 35.958 C 160.741 36.119,160.852 36.234,160.952 36.214 C 161.053 36.194,161.221 36.281,161.327 36.409 C 161.579 36.713,161.151 36.666,160.767 36.347 C 160.620 36.225,160.495 36.154,160.489 36.188 C 160.326 37.067,160.246 37.685,160.193 38.468 C 160.178 38.679,159.951 39.054,159.687 39.301 C 159.402 39.568,159.154 40.020,159.075 40.417 C 159.002 40.783,158.933 41.121,158.922 41.167 C 158.911 41.212,158.845 41.550,158.775 41.917 C 158.571 42.994,158.490 43.180,158.280 43.054 C 158.172 42.989,158.188 43.065,158.315 43.222 C 158.518 43.472,158.513 43.494,158.274 43.403 C 157.955 43.280,157.884 43.742,158.192 43.933 C 158.303 44.001,158.340 43.979,158.279 43.880 C 158.217 43.780,158.345 43.708,158.586 43.708 C 159.113 43.708,159.106 43.765,158.542 44.071 C 158.112 44.304,158.201 44.320,159.958 44.327 C 161.233 44.331,161.833 44.274,161.833 44.147 C 161.833 44.045,162.055 43.709,162.325 43.401 C 163.286 42.306,163.319 37.867,162.375 36.693 C 162.077 36.323,161.833 35.940,161.833 35.843 C 161.833 35.746,161.565 35.667,161.238 35.667 C 160.757 35.667,160.655 35.723,160.706 35.958 M167.262 35.929 C 167.039 36.151,167.000 36.759,167.000 40.000 C 167.000 44.672,166.808 44.335,169.470 44.328 C 170.912 44.325,171.339 44.278,171.116 44.148 C 170.907 44.027,170.865 43.912,170.980 43.775 C 171.402 43.266,171.059 40.670,170.472 39.941 C 169.830 39.142,169.615 37.409,170.098 36.926 C 170.311 36.713,170.298 36.659,169.986 36.493 C 169.726 36.354,169.680 36.253,169.815 36.118 C 170.181 35.753,169.980 35.667,168.762 35.667 C 167.859 35.667,167.453 35.737,167.262 35.929 M170.167 35.937 C 170.167 36.159,170.212 36.170,170.417 36.000 C 170.589 35.857,170.667 35.850,170.667 35.980 C 170.667 36.082,170.729 36.167,170.806 36.167 C 170.882 36.167,170.944 36.054,170.944 35.917 C 170.944 35.766,170.790 35.667,170.556 35.667 C 170.308 35.667,170.167 35.765,170.167 35.937 M171.230 36.042 C 171.249 36.396,171.530 36.833,171.738 36.833 C 171.917 36.833,171.834 36.067,171.633 35.867 C 171.335 35.568,171.208 35.623,171.230 36.042 M154.124 39.208 C 154.218 40.794,154.293 40.892,154.314 39.458 C 154.325 38.748,154.272 38.167,154.198 38.167 C 154.123 38.167,154.090 38.635,154.124 39.208 M307.000 40.656 C 307.000 41.974,306.999 41.978,306.542 42.031 C 306.214 42.068,306.012 42.237,305.833 42.621 C 305.586 43.155,305.573 43.159,304.375 43.163 L 303.167 43.167 303.167 41.250 L 303.167 39.333 305.083 39.333 L 307.000 39.333 307.000 40.656 M130.232 40.736 C 130.183 40.866,130.174 41.184,130.213 41.444 C 130.273 41.851,130.287 41.831,130.308 41.306 C 130.322 40.969,130.427 40.657,130.542 40.610 C 130.705 40.545,130.704 40.523,130.536 40.513 C 130.419 40.506,130.282 40.606,130.232 40.736 M156.487 41.607 C 156.102 42.025,156.100 42.036,156.449 41.855 C 156.836 41.654,157.081 41.359,156.962 41.240 C 156.922 41.200,156.709 41.365,156.487 41.607 M172.980 43.125 C 172.969 43.285,172.973 43.510,172.988 43.625 C 173.002 43.740,172.936 43.833,172.841 43.833 C 172.745 43.833,172.667 43.952,172.667 44.097 C 172.667 44.242,172.757 44.331,172.867 44.294 C 173.052 44.233,173.253 42.833,173.077 42.833 C 173.035 42.833,172.991 42.965,172.980 43.125 M148.875 44.282 C 149.035 44.323,149.298 44.323,149.458 44.282 C 149.619 44.240,149.487 44.205,149.167 44.205 C 148.846 44.205,148.715 44.240,148.875 44.282 M197.790 48.687 C 197.631 48.777,197.500 48.959,197.500 49.092 C 197.500 49.269,197.592 49.241,197.847 48.986 C 198.244 48.589,198.217 48.449,197.790 48.687 M131.899 50.079 C 131.919 50.213,131.999 50.382,132.077 50.454 C 132.156 50.525,132.166 50.490,132.100 50.375 C 132.034 50.260,132.056 50.167,132.149 50.167 C 132.241 50.167,132.393 50.298,132.487 50.458 C 132.580 50.619,132.659 50.662,132.662 50.554 C 132.667 50.330,132.213 49.833,132.003 49.833 C 131.926 49.833,131.879 49.944,131.899 50.079 M183.106 58.917 C 183.039 59.093,183.120 59.166,183.380 59.164 C 183.653 59.162,183.690 59.124,183.523 59.018 C 183.331 58.896,183.331 58.860,183.523 58.783 C 183.689 58.717,183.677 58.689,183.476 58.680 C 183.326 58.673,183.159 58.779,183.106 58.917 M159.026 63.767 C 158.270 64.297,158.912 65.932,159.686 65.449 C 160.016 65.243,160.277 64.314,160.091 64.012 C 159.847 63.617,159.390 63.512,159.026 63.767 M146.383 73.292 C 146.222 73.544,146.014 73.805,145.921 73.872 C 145.809 73.953,145.816 73.996,145.942 73.997 C 146.047 73.999,146.289 73.737,146.478 73.417 C 146.884 72.729,146.806 72.627,146.383 73.292 M144.333 78.442 C 144.333 78.874,144.341 78.878,144.667 78.583 C 144.850 78.417,145.000 78.218,145.000 78.141 C 145.000 78.063,144.850 78.000,144.667 78.000 C 144.417 78.000,144.333 78.111,144.333 78.442 " stroke="none" fill="#fcfcfc" fill-rule="evenodd"></path><path id="path1" d="M163.708 3.348 C 163.263 3.516,163.211 3.828,163.625 3.846 C 163.799 3.854,163.833 3.893,163.708 3.944 C 163.594 3.990,163.500 4.101,163.500 4.190 C 163.500 4.280,163.558 4.317,163.629 4.273 C 163.700 4.230,163.739 4.506,163.717 4.889 C 163.592 7.014,163.615 7.820,163.807 8.052 C 163.935 8.206,163.950 8.323,163.846 8.359 C 163.754 8.391,163.633 8.867,163.579 9.417 C 163.432 10.888,163.364 11.125,162.989 11.474 C 162.802 11.649,162.519 12.157,162.359 12.604 C 162.141 13.215,161.974 13.430,161.687 13.472 C 161.436 13.508,161.223 13.722,161.067 14.097 C 160.936 14.410,160.730 14.667,160.610 14.667 C 160.352 14.667,159.667 15.359,159.667 15.619 C 159.667 15.719,159.454 15.875,159.194 15.965 C 158.913 16.064,158.638 16.333,158.514 16.634 C 158.399 16.911,158.139 17.179,157.936 17.230 C 157.729 17.282,157.443 17.582,157.286 17.911 C 157.099 18.304,156.891 18.500,156.661 18.500 C 156.439 18.500,156.245 18.672,156.112 18.989 C 155.998 19.258,155.698 19.642,155.444 19.842 C 154.537 20.555,155.001 21.273,156.625 21.672 L 157.333 21.846 157.333 25.268 C 157.333 29.388,157.392 29.256,155.620 29.079 C 154.958 29.013,154.235 28.890,154.013 28.806 C 152.577 28.262,152.290 29.033,152.267 33.500 C 152.249 37.024,152.359 38.000,152.778 38.000 C 152.994 38.000,153.003 38.045,152.831 38.252 C 152.716 38.391,152.584 39.027,152.539 39.665 C 152.493 40.303,152.399 40.791,152.329 40.748 C 152.260 40.705,152.155 40.929,152.095 41.245 C 151.982 41.849,152.030 41.824,150.461 42.072 C 150.210 42.111,149.962 42.074,149.910 41.988 C 149.857 41.903,149.571 41.833,149.273 41.833 C 148.976 41.833,148.662 41.771,148.575 41.696 C 148.315 41.469,145.895 41.140,145.301 41.250 C 144.998 41.307,144.600 41.380,144.417 41.414 C 144.233 41.447,144.065 41.490,144.042 41.508 C 144.019 41.527,143.906 41.551,143.792 41.563 C 143.677 41.574,143.514 41.865,143.429 42.208 C 143.291 42.766,143.220 42.832,142.762 42.820 L 142.250 42.806 142.719 42.599 C 143.132 42.416,143.157 42.366,142.927 42.175 C 142.784 42.056,142.667 41.863,142.667 41.746 C 142.667 41.407,140.490 41.023,137.861 40.899 C 135.876 40.804,135.457 40.740,135.390 40.518 C 135.231 39.991,135.051 39.748,134.703 39.589 C 134.467 39.482,134.286 39.163,134.159 38.635 C 134.034 38.113,133.743 37.597,133.310 37.129 C 132.948 36.737,132.536 36.292,132.395 36.140 C 132.254 35.987,131.960 35.818,131.741 35.763 C 131.521 35.708,131.069 35.477,130.736 35.251 C 130.403 35.025,129.970 34.844,129.773 34.848 C 129.100 34.863,127.750 34.464,127.406 34.149 C 126.919 33.703,126.763 33.747,126.167 34.500 C 125.876 34.867,125.508 35.167,125.349 35.167 C 124.809 35.167,124.873 36.803,125.431 37.248 C 125.678 37.445,125.963 37.863,126.065 38.176 C 126.180 38.530,126.428 38.831,126.718 38.970 C 126.976 39.093,127.273 39.385,127.380 39.619 C 127.493 39.868,127.868 40.170,128.287 40.349 C 129.057 40.679,129.289 41.648,128.812 42.541 C 128.293 43.509,128.518 47.843,129.097 48.066 C 129.390 48.178,129.610 48.723,129.753 49.691 C 129.880 50.554,130.273 51.441,130.579 51.559 C 130.701 51.605,130.888 51.912,130.997 52.240 C 131.105 52.568,131.262 52.794,131.347 52.742 C 131.431 52.690,131.500 52.726,131.500 52.823 C 131.500 52.921,131.641 53.000,131.814 53.000 C 131.987 53.000,132.241 53.173,132.380 53.384 C 132.526 53.606,133.023 53.900,133.565 54.085 C 134.079 54.259,134.500 54.488,134.500 54.592 C 134.500 54.853,134.999 55.268,135.497 55.420 C 135.724 55.490,136.110 55.761,136.355 56.023 C 136.600 56.286,136.920 56.509,137.067 56.521 C 137.213 56.532,137.408 56.560,137.500 56.583 C 137.592 56.606,137.818 56.634,138.004 56.646 C 138.189 56.657,138.425 56.852,138.528 57.078 C 138.654 57.355,138.979 57.577,139.524 57.758 C 139.969 57.906,140.333 58.090,140.333 58.166 C 140.333 58.406,141.799 58.878,142.216 58.773 C 142.435 58.718,143.628 58.630,144.866 58.578 L 147.119 58.482 147.328 58.988 C 147.444 59.266,147.486 59.627,147.422 59.789 C 147.358 59.951,147.241 60.753,147.163 61.571 C 147.061 62.630,146.946 63.100,146.762 63.203 C 146.333 63.443,146.140 63.978,146.062 65.142 C 145.958 66.678,145.718 67.615,145.330 68.003 C 145.136 68.197,145.000 68.557,145.000 68.876 C 145.000 69.175,144.928 69.670,144.840 69.976 C 144.752 70.283,144.662 70.881,144.640 71.306 C 144.612 71.850,144.493 72.177,144.236 72.415 C 143.798 72.821,143.502 73.802,143.501 74.850 C 143.500 75.796,143.235 76.603,142.723 77.221 C 142.438 77.566,142.333 77.901,142.332 78.471 C 142.328 80.500,142.168 81.026,141.474 81.299 C 141.122 81.437,140.827 81.595,140.819 81.650 C 140.734 82.263,140.746 82.471,140.862 82.399 C 140.938 82.352,141.000 82.458,141.000 82.634 C 141.000 82.923,141.141 82.958,142.431 82.986 C 144.386 83.029,144.333 83.103,144.333 80.313 C 144.333 78.095,144.347 78.000,144.674 78.000 C 145.386 78.000,145.609 77.524,145.647 75.917 C 145.688 74.167,145.775 73.775,146.096 73.898 C 146.224 73.947,146.404 73.845,146.497 73.671 C 146.759 73.183,146.686 73.029,146.417 73.500 C 146.286 73.729,146.176 73.833,146.173 73.731 C 146.169 73.629,146.317 73.354,146.500 73.121 C 146.783 72.762,146.833 72.445,146.833 71.029 L 146.833 69.360 147.343 69.248 C 147.828 69.141,148.209 68.601,148.150 68.106 C 147.998 66.836,148.192 65.333,148.509 65.333 C 149.080 65.333,149.333 64.417,149.333 62.352 L 149.333 60.526 149.845 60.414 C 150.201 60.336,150.328 60.228,150.264 60.059 C 150.208 59.913,150.242 59.860,150.349 59.926 C 150.455 59.992,150.511 59.911,150.488 59.727 C 150.466 59.556,150.507 59.282,150.578 59.118 C 150.725 58.779,150.612 57.223,150.427 57.038 C 150.360 56.971,148.432 56.906,146.142 56.892 C 143.852 56.879,141.951 56.840,141.917 56.806 C 141.883 56.772,141.825 56.521,141.789 56.249 C 141.727 55.790,141.666 55.750,140.939 55.697 C 140.162 55.640,139.333 55.120,139.333 54.689 C 139.333 54.585,139.277 54.494,139.208 54.488 C 138.348 54.402,138.003 54.219,137.942 53.813 C 137.869 53.330,137.649 53.218,136.723 53.187 C 135.629 53.152,135.641 53.158,135.608 52.616 C 135.586 52.247,135.303 51.821,135.087 51.830 C 134.416 51.857,134.225 51.787,134.081 51.459 C 133.991 51.253,133.692 50.978,133.417 50.848 C 133.142 50.718,132.823 50.492,132.708 50.347 C 132.525 50.116,132.511 50.125,132.596 50.417 C 132.683 50.718,132.674 50.722,132.504 50.458 C 132.293 50.130,131.914 50.052,132.100 50.375 C 132.166 50.490,132.156 50.525,132.077 50.454 C 131.762 50.166,131.855 49.818,132.222 49.911 C 132.573 49.999,132.573 49.996,132.208 49.809 C 131.870 49.635,131.652 48.151,131.814 47.125 C 131.824 47.056,131.758 46.991,131.667 46.979 C 131.575 46.968,131.425 46.940,131.333 46.917 C 131.242 46.894,131.054 46.866,130.917 46.854 C 130.704 46.836,130.667 46.370,130.667 43.750 C 130.667 41.806,130.605 40.667,130.500 40.667 C 130.408 40.667,130.321 40.948,130.307 41.292 L 130.280 41.917 130.210 41.341 C 130.165 40.964,130.224 40.704,130.381 40.589 C 130.647 40.394,130.727 38.724,130.478 38.570 C 130.259 38.434,130.305 38.167,130.547 38.167 C 130.664 38.167,130.849 38.401,130.957 38.688 C 131.108 39.087,131.230 39.189,131.483 39.123 C 131.854 39.026,132.000 39.277,132.000 40.014 C 132.000 40.281,132.075 40.509,132.167 40.521 C 132.258 40.532,132.502 40.551,132.708 40.563 C 133.044 40.581,133.094 40.694,133.184 41.634 C 133.330 43.167,133.023 43.083,138.508 43.083 L 143.333 43.083 143.333 43.454 C 143.333 44.258,143.714 44.317,148.886 44.314 C 154.986 44.310,154.612 44.637,154.185 39.667 C 154.116 38.865,154.128 38.206,154.213 38.148 C 154.295 38.092,154.355 37.998,154.348 37.940 C 154.340 37.881,154.333 36.142,154.333 34.075 L 154.333 30.316 155.833 30.347 C 156.658 30.363,157.333 30.432,157.333 30.499 C 157.333 30.595,158.710 30.612,159.196 30.521 C 159.258 30.509,159.316 28.025,159.327 25.000 L 159.345 19.500 158.714 19.477 C 158.253 19.461,158.196 19.434,158.500 19.378 C 159.079 19.272,159.333 19.026,159.333 18.573 C 159.333 18.247,159.431 18.179,159.958 18.135 C 160.445 18.095,160.589 18.010,160.607 17.750 C 160.620 17.567,160.639 17.295,160.649 17.146 C 160.660 16.984,160.870 16.834,161.170 16.774 C 161.564 16.696,161.696 16.564,161.774 16.170 C 161.857 15.756,161.957 15.667,162.334 15.667 C 162.778 15.667,163.205 15.350,163.153 15.059 C 163.060 14.545,163.203 14.351,163.708 14.302 C 164.187 14.256,164.260 14.182,164.333 13.667 C 164.397 13.222,164.496 13.083,164.750 13.083 C 164.933 13.083,165.202 12.913,165.348 12.704 L 165.612 12.325 165.637 12.871 C 165.691 14.064,165.838 14.336,166.708 14.842 C 166.869 14.935,167.000 15.159,167.000 15.339 C 167.000 15.519,167.094 15.669,167.208 15.672 C 167.492 15.680,168.075 16.185,168.211 16.542 C 168.287 16.739,168.503 16.833,168.881 16.833 C 169.423 16.833,169.444 16.858,169.595 17.708 C 169.680 18.190,169.838 18.583,169.944 18.583 C 170.051 18.583,170.201 18.652,170.278 18.735 C 170.358 18.823,170.329 18.837,170.208 18.767 C 170.094 18.701,170.000 18.714,170.000 18.797 C 170.000 18.879,170.179 19.028,170.397 19.127 C 170.794 19.308,171.116 20.471,170.824 20.667 C 170.624 20.800,170.655 30.202,170.856 30.444 C 170.980 30.593,171.683 30.654,173.288 30.656 C 174.530 30.657,175.572 30.683,175.603 30.714 C 175.634 30.745,175.664 33.712,175.670 37.308 C 175.677 40.903,175.724 43.956,175.776 44.092 C 175.905 44.426,195.488 44.454,195.519 44.120 C 195.530 44.008,195.556 43.842,195.577 43.750 C 195.598 43.658,195.627 43.457,195.641 43.303 C 195.655 43.149,195.834 42.999,196.037 42.970 C 196.526 42.900,196.828 42.266,196.831 41.307 C 196.833 40.651,196.878 40.543,197.125 40.607 C 197.558 40.719,198.007 40.311,198.070 39.747 C 198.111 39.384,198.203 39.264,198.412 39.303 C 198.569 39.331,198.809 39.219,198.944 39.053 C 199.080 38.886,199.137 38.855,199.070 38.984 C 198.989 39.139,199.014 39.178,199.144 39.098 C 199.251 39.031,199.300 38.914,199.252 38.837 C 199.149 38.670,199.321 38.167,199.481 38.167 C 199.875 38.167,199.436 39.485,199.025 39.532 C 198.318 39.614,198.210 40.283,198.193 44.699 C 198.179 48.444,198.160 48.674,197.839 48.994 C 197.653 49.181,197.500 49.253,197.500 49.155 C 197.500 49.057,197.387 49.089,197.250 49.226 C 197.096 49.380,197.000 49.789,197.000 50.292 C 197.000 51.282,196.574 51.771,195.578 51.928 C 194.762 52.056,194.473 52.280,194.536 52.734 C 194.576 53.027,194.484 53.092,193.967 53.135 C 193.568 53.168,193.316 53.286,193.254 53.468 C 193.100 53.922,192.436 54.306,191.674 54.383 C 190.921 54.458,190.642 54.708,190.709 55.249 C 190.742 55.519,190.626 55.598,190.083 55.674 C 189.316 55.782,188.667 56.096,188.667 56.360 C 188.667 56.472,188.777 56.454,188.958 56.312 C 189.222 56.105,189.228 56.111,189.023 56.373 C 188.898 56.533,188.735 56.626,188.662 56.580 C 188.589 56.535,188.500 56.583,188.465 56.688 C 188.420 56.824,187.226 56.872,184.266 56.859 C 178.993 56.836,179.482 56.517,179.509 59.962 L 179.530 62.739 180.077 63.255 L 180.625 63.772 180.705 65.761 C 180.795 68.001,181.089 69.000,181.658 69.000 C 181.985 69.000,182.000 69.094,182.002 71.125 C 182.005 73.726,182.065 73.988,182.688 74.113 L 183.167 74.208 183.175 75.729 C 183.191 78.493,183.506 79.512,184.258 79.224 C 184.459 79.147,184.502 79.410,184.511 80.774 C 184.532 83.851,184.697 84.167,186.278 84.167 C 186.929 84.167,187.152 84.111,187.066 83.972 C 186.986 83.843,187.034 83.811,187.207 83.877 C 187.390 83.947,187.501 83.853,187.573 83.565 C 187.630 83.339,187.749 83.198,187.838 83.253 C 188.020 83.365,188.049 83.154,187.904 82.777 C 187.842 82.617,187.662 82.553,187.401 82.600 C 186.843 82.702,186.675 82.194,186.600 80.178 C 186.542 78.601,186.306 77.782,185.749 77.225 C 185.518 76.995,185.392 76.253,185.241 74.250 C 185.186 73.517,185.037 72.729,184.910 72.500 C 184.229 71.272,184.100 70.823,184.000 69.333 C 183.886 67.639,183.790 67.276,183.312 66.743 C 183.085 66.489,182.965 65.940,182.840 64.577 C 182.638 62.368,182.555 62.029,182.102 61.528 C 181.723 61.109,181.631 59.562,181.973 59.350 C 182.177 59.224,183.920 59.370,185.723 59.665 C 186.955 59.866,187.065 59.858,187.648 59.531 C 187.988 59.340,188.525 59.139,188.841 59.086 C 189.699 58.940,190.000 58.828,190.000 58.655 C 190.000 58.347,190.676 57.833,191.083 57.833 C 191.320 57.833,191.767 57.592,192.125 57.272 C 192.469 56.963,192.916 56.659,193.120 56.596 C 193.323 56.533,193.698 56.260,193.953 55.990 C 194.207 55.721,194.508 55.500,194.621 55.500 C 195.130 55.500,196.138 54.947,196.307 54.574 C 196.427 54.310,196.631 54.167,196.884 54.167 C 197.281 54.167,198.000 53.550,198.000 53.209 C 198.000 53.106,198.138 52.979,198.307 52.925 C 198.785 52.773,199.118 51.966,199.154 50.871 C 199.162 50.642,199.323 50.422,199.562 50.313 C 199.980 50.122,200.097 49.820,200.585 47.667 C 200.757 46.907,200.826 46.156,200.762 45.753 C 200.264 42.627,200.311 41.677,200.964 41.669 C 201.082 41.668,201.331 41.407,201.518 41.091 C 201.705 40.774,202.006 40.468,202.188 40.410 C 202.370 40.352,202.641 40.050,202.790 39.737 C 202.938 39.425,203.197 39.126,203.365 39.073 C 204.213 38.804,204.206 36.207,203.355 35.436 C 202.962 35.081,201.919 35.039,201.550 35.363 C 201.187 35.683,200.841 35.790,199.750 35.921 C 198.584 36.061,197.870 36.308,197.626 36.657 C 197.511 36.821,197.167 37.010,196.862 37.077 C 196.407 37.177,196.249 37.335,195.980 37.964 C 195.799 38.385,195.505 38.832,195.326 38.957 C 195.147 39.083,194.915 39.524,194.811 39.938 C 194.688 40.426,194.458 40.811,194.158 41.033 C 193.903 41.221,193.661 41.504,193.620 41.662 C 193.506 42.096,192.262 42.167,184.729 42.167 L 178.006 42.167 177.925 41.792 C 177.881 41.585,177.802 39.317,177.749 36.750 C 177.696 34.183,177.623 31.708,177.587 31.250 C 177.550 30.792,177.516 30.319,177.510 30.200 C 177.490 29.770,176.652 29.175,176.148 29.234 C 175.883 29.264,175.667 29.224,175.667 29.145 C 175.667 29.065,175.423 28.999,175.125 28.997 C 174.827 28.995,174.208 28.896,173.750 28.778 L 172.917 28.562 172.871 25.173 C 172.825 21.686,172.963 20.914,173.564 21.291 C 174.601 21.943,175.577 20.861,174.706 20.025 C 174.452 19.782,174.153 19.375,174.040 19.120 C 173.928 18.865,173.675 18.597,173.478 18.524 C 173.281 18.451,172.998 18.135,172.851 17.821 C 172.654 17.402,172.458 17.236,172.116 17.196 C 171.775 17.157,171.577 16.990,171.377 16.571 C 171.228 16.257,171.010 16.000,170.894 16.000 C 170.777 16.000,170.554 15.730,170.398 15.401 C 170.242 15.072,169.944 14.725,169.736 14.630 C 169.529 14.536,169.313 14.276,169.257 14.054 C 169.202 13.831,168.912 13.505,168.614 13.329 C 168.207 13.089,168.021 12.819,167.867 12.245 C 167.755 11.825,167.487 11.305,167.272 11.091 C 166.758 10.577,166.680 10.342,166.567 8.983 C 166.515 8.353,166.415 7.630,166.346 7.377 C 166.276 7.124,166.274 6.729,166.341 6.500 C 166.676 5.343,166.856 3.844,166.694 3.555 C 166.504 3.216,164.437 3.073,163.708 3.348 M158.833 35.885 C 158.833 35.959,158.766 35.978,158.684 35.928 C 158.518 35.825,158.292 36.490,158.235 37.250 C 158.215 37.525,158.191 37.839,158.182 37.948 C 158.174 38.057,157.924 38.169,157.627 38.198 C 157.033 38.255,157.081 38.081,156.959 40.647 C 156.924 41.397,156.849 41.586,156.500 41.806 L 156.083 42.068 156.487 41.617 C 156.710 41.369,156.802 41.167,156.693 41.167 C 155.943 41.167,155.546 43.613,156.220 44.085 C 156.679 44.407,157.881 44.403,158.508 44.079 C 159.107 43.769,159.120 43.708,158.586 43.708 C 158.345 43.708,158.217 43.780,158.279 43.880 C 158.340 43.979,158.303 44.001,158.192 43.933 C 157.884 43.742,157.955 43.280,158.274 43.403 C 158.513 43.494,158.518 43.472,158.315 43.222 C 158.188 43.065,158.172 42.989,158.280 43.054 C 158.490 43.180,158.571 42.994,158.775 41.917 C 158.845 41.550,158.911 41.212,158.922 41.167 C 158.933 41.121,159.002 40.783,159.075 40.417 C 159.154 40.020,159.402 39.568,159.687 39.301 C 159.951 39.054,160.178 38.679,160.193 38.468 C 160.246 37.685,160.326 37.067,160.489 36.188 C 160.495 36.154,160.620 36.225,160.767 36.347 C 161.154 36.668,161.579 36.713,161.324 36.405 C 161.217 36.276,161.057 36.215,160.970 36.269 C 160.882 36.323,160.767 36.198,160.713 35.992 C 160.620 35.635,160.604 35.632,160.391 35.924 C 160.192 36.195,160.167 36.198,160.167 35.952 C 160.167 35.731,160.027 35.681,159.500 35.711 C 159.134 35.733,158.834 35.811,158.833 35.885 M169.877 35.989 C 169.700 36.275,169.719 36.349,170.006 36.503 C 170.300 36.661,170.311 36.713,170.098 36.926 C 169.615 37.409,169.830 39.142,170.472 39.941 C 171.060 40.672,171.402 43.266,170.978 43.776 C 170.861 43.918,170.911 44.030,171.146 44.156 C 171.606 44.402,172.666 44.310,172.666 44.024 C 172.667 43.899,172.760 43.834,172.875 43.878 C 173.036 43.939,173.079 43.441,173.064 41.687 C 173.038 38.721,173.040 38.739,172.705 38.476 C 172.455 38.280,172.439 38.284,172.583 38.508 C 172.675 38.650,172.625 38.631,172.473 38.466 C 172.321 38.301,172.115 38.167,172.015 38.167 C 171.915 38.167,171.833 37.894,171.833 37.561 C 171.833 37.192,171.717 36.851,171.536 36.686 C 171.372 36.538,171.241 36.285,171.244 36.125 C 171.247 35.965,171.175 35.852,171.083 35.875 C 170.992 35.898,170.935 35.973,170.958 36.042 C 170.981 36.110,170.925 36.167,170.833 36.167 C 170.742 36.167,170.667 36.082,170.667 35.980 C 170.667 35.845,170.600 35.848,170.431 35.988 C 170.245 36.143,170.183 36.128,170.139 35.920 C 170.093 35.700,170.048 35.712,169.877 35.989 M129.500 37.325 C 129.500 37.618,129.618 37.886,129.792 37.987 C 130.054 38.139,130.047 38.157,129.719 38.162 C 129.428 38.166,129.344 38.057,129.302 37.625 C 129.255 37.133,129.189 37.074,128.583 36.982 L 127.917 36.881 128.708 36.857 C 129.479 36.834,129.500 36.846,129.500 37.325 M183.523 58.783 C 183.331 58.860,183.331 58.896,183.523 59.018 C 183.690 59.124,183.653 59.162,183.380 59.164 C 183.120 59.166,183.039 59.093,183.106 58.917 C 183.159 58.779,183.326 58.673,183.476 58.680 C 183.677 58.689,183.689 58.717,183.523 58.783 " stroke="none" fill="#f4f4f4" fill-rule="evenodd"></path></g></svg>